<svg xmlns="http://www.w3.org/2000/svg" viewBox="0 0 68.2 72">
  <rect width="68.2" height="72" rx="8" fill="#034078"/>
  <path fill="#FEFCFB" d="M34,2.64h2.62V11.5a1.31,1.31,0,0,1-2.62,0ZM39.27,2.64h2.62V21.71A1.31,1.31,0,0,1,39.27,21.71ZM45.93,58.65H35.35V38.25h2.38V56.49h8.2Z"/>
  <polygon fill="#FEFCFB" points="32.72 38.24 32.73 40.81 23.89 48.47 32.73 56.13 32.72 58.67 20.94 48.45 32.72 38.24"/>
  <path fill="#1282A2" d="M22.26,30.68h0a1.32,1.32,0,0,0,1.32-1.32V11.08L17.09,2.64H51l-6.5,8.44v20L64.78,63.62a5,5,0,0,1,0,5.3,5.19,5.19,0,0,1-4.48,2.49H7.77a5.24,5.24,0,0,1-4.64-2.7,5.07,5.07,0,0,1-.47-1.26,1.33,1.33,0,0,0-1.29-1h0A1.32,1.32,0,0,0,.09,68.05a7.76,7.76,0,0,0,.82,2.1,7.89,7.89,0,0,0,6.86,3.9H60.45A7.74,7.74,0,0,0,67,62.23L47.14,30.3V12L56.35,0H11.73L21,12V29.36A1.32,1.32,0,0,0,22.26,30.68Z"/>
</svg>
