<svg xmlns="http://www.w3.org/2000/svg" viewBox="0 0 68.2 86.91"><defs><style>.cls-1{fill:#fff;}</style></defs><g id="Capa_2" data-name="Capa 2"><g id="Capa_3" data-name="Capa 3"><path class="cls-1" d="M12,86.91A4.41,4.41,0,0,1,8.58,85.5a5.22,5.22,0,0,1-1.29-3.67A5.54,5.54,0,0,1,8.6,78a4.61,4.61,0,0,1,3.57-1.45,4.29,4.29,0,0,1,3.35,1.41,5.21,5.21,0,0,1,1.27,3.66,5.54,5.54,0,0,1-1.3,3.89A4.5,4.5,0,0,1,12,86.91Zm.09-9.32a3.26,3.26,0,0,0-2.58,1.14,5.11,5.11,0,0,0,0,6A3.15,3.15,0,0,0,12,85.85a3.31,3.31,0,0,0,2.61-1.08,4.44,4.44,0,0,0,1-3,4.66,4.66,0,0,0-.92-3.08A3.19,3.19,0,0,0,12.09,77.59Z"/><path class="cls-1" d="M18.77,86.74v-10h2.77c3.54,0,5.32,1.63,5.32,4.9a5,5,0,0,1-1.48,3.74,5.47,5.47,0,0,1-3.95,1.41Zm1.18-9v7.91h1.5a4.27,4.27,0,0,0,3.07-1,4,4,0,0,0,1.1-3c0-2.58-1.37-3.86-4.1-3.86Z"/><path class="cls-1" d="M34.16,86.74H28.83v-10h5.1v1.07H30V81.1h3.63v1.06H30v3.51h4.15Z"/><path class="cls-1" d="M43.94,86.74H42.63l-1.06-2.82H37.31l-1,2.82H35l3.85-10h1.22Zm-2.76-3.88-1.57-4.28a3.88,3.88,0,0,1-.16-.67h0a3.14,3.14,0,0,1-.16.67L37.7,82.86Z"/><path class="cls-1" d="M50.63,86.74H45.42v-10h1.17v9h4Z"/><path class="cls-1" d="M60.36,86.74h-1.3L58,83.92H53.73l-1,2.82H51.42l3.85-10h1.22Zm-2.75-3.88L56,78.58a4.1,4.1,0,0,1-.15-.67h0a3.9,3.9,0,0,1-.16.67l-1.57,4.28Z"/><path class="cls-1" d="M61.84,86.74v-10H64.7a3.08,3.08,0,0,1,2.06.64A2.06,2.06,0,0,1,67.53,79a2.42,2.42,0,0,1-1.74,2.38v0a2.59,2.59,0,0,1,1.63.77,2.37,2.37,0,0,1,.6,1.68,2.61,2.61,0,0,1-.92,2.09,3.45,3.45,0,0,1-2.33.8Zm1.18-9V81h1.2a2.3,2.3,0,0,0,1.52-.46,1.64,1.64,0,0,0,.55-1.32c0-1-.64-1.46-1.92-1.46Zm0,4.3v3.61h1.59a2.38,2.38,0,0,0,1.61-.49,1.66,1.66,0,0,0,.57-1.34c0-1.19-.81-1.78-2.42-1.78Z"/><polygon class="cls-1" points="6.06 76.66 6.07 77.94 1.52 81.74 6.07 85.55 6.06 86.81 0 81.73 6.06 76.66"/><path class="cls-1" d="M34,2.64h2.62a0,0,0,0,1,0,0V11.5a1.31,1.31,0,0,1-1.31,1.31h0A1.31,1.31,0,0,1,34,11.5V2.64A0,0,0,0,1,34,2.64Z"/><path class="cls-1" d="M39.27,2.64h2.62a0,0,0,0,1,0,0V21.71A1.31,1.31,0,0,1,40.58,23h0a1.31,1.31,0,0,1-1.31-1.31V2.64a0,0,0,0,1,0,0Z"/><path class="cls-1" d="M45.93,58.65H35.35V38.25h2.38V56.49h8.2Z"/><polygon class="cls-1" points="32.72 38.24 32.73 40.81 23.89 48.47 32.73 56.13 32.72 58.67 20.94 48.45 32.72 38.24"/><polygon class="cls-1" points="20.64 35.78 17.53 35.78 1.64 61.31 4.74 61.31 20.64 35.78"/><path class="cls-1" d="M22.26,30.68h0a1.32,1.32,0,0,0,1.32-1.32V11.08L17.09,2.64H51l-6.5,8.44v20L64.78,63.62a5,5,0,0,1,0,5.3,5.19,5.19,0,0,1-4.48,2.49H7.77a5.24,5.24,0,0,1-4.64-2.7,5.07,5.07,0,0,1-.47-1.26,1.33,1.33,0,0,0-1.29-1h0A1.32,1.32,0,0,0,.09,68.05a7.76,7.76,0,0,0,.82,2.1,7.89,7.89,0,0,0,6.86,3.9H60.45A7.74,7.74,0,0,0,67,62.23L47.14,30.3V12L56.35,0H11.73L21,12V29.36A1.32,1.32,0,0,0,22.26,30.68Z"/></g></g></svg>